<?xml version="1.0" standalone="no"?>
<!DOCTYPE svg PUBLIC "-//W3C//DTD SVG 20010904//EN"
 "http://www.w3.org/TR/2001/REC-SVG-20010904/DTD/svg10.dtd">
<svg version="1.0" xmlns="http://www.w3.org/2000/svg"
 width="760.000000pt" height="760.000000pt" viewBox="0 0 760.000000 760.000000"
 preserveAspectRatio="xMidYMid meet">
<metadata>
Created by potrace 1.14, written by Peter Selinger 2001-2017
</metadata>
<g transform="translate(0.000000,760.000000) scale(0.100000,-0.100000)"
fill="#000000" stroke="none">
<path d="M258 7340 l-23 -6 0 -1382 0 -1382 825 0 825 0 -1 711 -1 710 896 -4
c493 -2 907 -6 921 -9 14 -4 52 -9 85 -13 335 -37 726 -167 965 -319 73 -47
155 -101 160 -106 3 -3 37 -30 75 -61 139 -112 279 -269 387 -434 116 -177
232 -450 273 -645 24 -109 34 -164 40 -210 5 -30 9 -66 11 -80 17 -117 21
-340 11 -510 -7 -119 -8 -126 -33 -275 -23 -137 -83 -356 -124 -450 -73 -169
-174 -346 -267 -468 -71 -93 -267 -285 -365 -358 -226 -167 -499 -295 -793
-370 -96 -25 -94 -25 -222 -46 -57 -9 -103 -21 -104 -27 0 -6 -1 -314 -2 -684
l-2 -674 85 7 c47 3 99 7 115 9 17 2 57 7 90 10 206 23 429 64 635 118 63 16
122 31 130 33 37 8 295 97 390 135 217 86 451 208 646 336 97 63 266 187 300
219 6 5 36 30 65 55 30 24 113 104 184 176 387 389 662 870 811 1414 19 71 37
139 40 152 27 131 50 261 60 343 3 33 8 69 10 80 26 138 25 764 -1 929 -2 11
-6 44 -10 71 -59 489 -249 1008 -519 1420 -125 190 -231 320 -401 490 -178
179 -315 292 -510 422 -448 298 -1005 513 -1565 602 -36 6 -74 13 -85 15 -11
2 -45 7 -75 11 -30 3 -66 8 -80 10 -14 2 -54 6 -90 10 -36 3 -81 8 -100 10
-19 2 -100 7 -180 11 -176 8 -3449 11 -3482 4z"/>
<path d="M2763 4136 c-53 -62 -108 -125 -141 -161 -10 -11 -61 -69 -113 -130
-51 -60 -101 -116 -109 -125 -8 -9 -24 -27 -35 -41 -12 -13 -56 -64 -99 -114
-43 -49 -102 -117 -131 -150 -29 -33 -101 -115 -160 -183 l-107 -122 -106 92
c-59 51 -120 104 -136 118 -16 14 -34 30 -40 35 -81 72 -111 98 -166 146 -36
31 -123 107 -194 168 -124 108 -130 112 -146 94 -15 -15 -255 -292 -315 -362
-11 -13 -37 -42 -57 -65 -21 -22 -38 -46 -38 -51 0 -6 24 -31 53 -55 29 -25
84 -72 122 -105 37 -33 107 -94 154 -135 47 -41 100 -87 116 -101 38 -34 192
-168 275 -239 117 -101 245 -213 280 -244 19 -17 66 -58 105 -91 38 -33 85
-73 103 -90 55 -49 60 -49 89 -14 15 17 31 36 37 43 6 6 35 40 65 76 30 36 60
70 65 75 6 6 38 41 71 80 85 99 109 126 120 139 6 6 55 63 110 126 55 63 102
117 105 120 3 3 32 37 65 75 33 39 64 75 70 81 27 30 166 190 395 454 30 35
60 68 65 74 6 6 37 42 70 80 33 38 70 81 83 95 12 13 21 29 19 35 -3 10 -374
338 -457 405 l-35 28 -52 -61z"/>
<path d="M1110 934 l0 -684 823 0 824 0 -1 683 -1 682 -822 1 -823 1 0 -683z"/>
</g>
</svg>
